:SAMPLES-PER-SECOND 30
:FULLY-SPECIFIED
:DEGREES
64
root  34.74411551 36.4994019 -14.96411271 8.214082718 -6.572946548 3.917117596
lowerback  -7.356480598 -1.623939991 -1.178879857
upperback  -4.455679893 -1.617339969 -3.364979982
thorax  -0.5415179729 -0.6298400164 -2.924066067
lowerneck  -1.947669983 -17.03440094 -13.16090012
upperneck  12.47570038 -23.77119827 12.95300102
head  7.275159836 -11.30179977 3.936539888
lclavicle  0 -4.497500157e-015 -2.743230041e-014
lhumerus  -50.4375 29.74130058 61.84339905
lradius  0.001595117152 -6.507048965e-006 30.46974182
lwrist  4.824992743e-007 -3.790274832e-007 -28.64019966
lhand  -4.412849614e-031 -36.85160065 -10.81070042
lfingers  90 7.125020027 -90
lthumb  94.82212964 -25.64578068 101.0296317
rclavicle  0 -4.497500157e-015 -2.743230041e-014
rhumerus  -61.09080124 -28.73209953 -11.83659744
rradius  -5.16745672e-007 2.214343908e-008 108.7549973
rwrist  -0.0001011603963 -0.001600692281 175.5080261
rhand  -1.765779766e-031 0.8987749815 -7.985960007
rfingers  -90 -7.125020027 -90
rthumb  -86.03725488 -7.908136536 -63.27498107
rfemur  -12.89758205 16.76524734 12.74053955
rtibia  -1.594688654 -1.294007778 21.80110359
rfoot  -0.02985853516 -22.4745121 -35.57131958
rtoes  4.143878705 19.58321831 -102.1972499
lfemur  -8.133213043 -17.08638 -20.68177414
ltibia  2.354063988 -1.690446496 15.13652134
lfoot  0.9409917593 -22.32341766 38.39964294
ltoes  -8.616026495 -18.117913 -115.977663
65
root  34.74084449 36.49975334 -14.96316805 8.212742805 -6.55364418 3.920964241
lowerback  -7.365049839 -1.645920157 -1.206040502
upperback  -4.465769768 -1.641530037 -3.386159897
thorax  -0.5481110215 -0.6402699947 -2.927024603
lowerneck  -1.880900025 -17.0848999 -13.1189003
upperneck  12.40799999 -23.84810066 12.99030018
head  7.252039909 -11.33889961 3.938570023
lclavicle  0 -4.497500157e-015 -2.743230041e-014
lhumerus  -50.43970108 29.71520042 61.81750107
lradius  0.001595117152 -6.507048965e-006 30.49579048
lwrist  4.824992743e-007 -3.790274832e-007 -28.59550285
lhand  -4.413230632e-031 -36.85820007 -10.81849957
lfingers  90 7.125020027 -90
lthumb  94.82693507 -25.65318713 101.0375053
rclavicle  0 -4.497500157e-015 -2.743230041e-014
rhumerus  -60.76810074 -29.07979774 -10.7324028
rradius  -5.16745672e-007 2.214343908e-008 108.8539963
rwrist  -0.0001011603963 -0.001600692281 175.2360382
rhand  -1.765728154e-031 0.784792006 -8.021730423
rfingers  -90 -7.125020027 -90
rthumb  -86.07594373 -7.869080911 -63.38810308
rfemur  -12.88674736 16.72914886 12.7485323
rtibia  -1.590473771 -1.309668422 21.79991531
rfoot  -0.02830481343 -22.51144028 -35.55525208
rtoes  4.168925182 19.57810131 -102.2719857
lfemur  -8.115739822 -17.11813354 -20.69106483
ltibia  2.372553587 -1.702272534 15.11556149
lfoot  0.9421329498 -22.28265381 38.40329742
ltoes  -8.610946678 -18.12026455 -115.9613288
66
root  34.73945377 36.5000477 -14.96218133 8.207494736 -6.541856289 3.917923689
lowerback  -7.366600513 -1.655249953 -1.246270061
upperback  -4.477700233 -1.648470044 -3.404409885
thorax  -0.5592300296 -0.6418139935 -2.929617167
lowerneck  -1.809499979 -17.13349915 -13.1225996
upperneck  12.33230019 -23.92160034 13.03359985
head  7.23156023 -11.37720013 3.948630095
lclavicle  0 -4.497500157e-015 -2.743230041e-014
lhumerus  -50.43069839 29.71229935 61.80709839
lradius  0.001595117152 -6.507048965e-006 30.50099182
lwrist  4.824992743e-007 -3.790274832e-007 -28.62649918
lhand  -0 -36.86589813 -10.80770016
lfingers  90 7.125020027 -90
lthumb  94.82822596 -25.64226209 101.0446758
rclavicle  0 -4.497500157e-015 -2.743230041e-014
rhumerus  -60.35760117 -29.35330009 -9.646457672
rradius  -5.16745672e-007 2.214343908e-008 108.8320007
rwrist  -0.0001011603963 -0.001600692281 175.1290436
rhand  -1.765813425e-031 0.9658859968 -8.196749687
rfingers  -90 -7.125020027 -90
rthumb  -86.11983146 -7.724166802 -63.22275688
rfemur  -12.86955452 16.71413231 12.75495529
rtibia  -1.589767575 -1.307605982 21.77973175
rfoot  -0.03026292287 -22.49799538 -35.58502197
rtoes  4.169776629 19.57792679 -102.2745266
lfemur  -8.142525673 -17.1291275 -20.67741966
ltibia  2.351896763 -1.715877295 15.16319084
lfoot  0.9393499494 -22.27927399 38.37731171
ltoes  -8.602015632 -18.12439471 -115.932616
67
root  34.73693367 36.50008374 -14.96111952 8.202248573 -6.524098873 3.936852455
lowerback  -7.365690231 -1.656679988 -1.246020555
upperback  -4.495759964 -1.648579955 -3.410290003
thorax  -0.5786380172 -0.6409929991 -2.930360079
lowerneck  -1.734990001 -17.18120003 -13.19559956
upperneck  12.29020023 -23.99869728 13.11410046
head  7.235499859 -11.41619968 3.97623992
lclavicle  0 -4.497500157e-015 -2.743230041e-014
lhumerus  -50.43090057 29.70759964 61.81000137
lradius  0.001595117152 -6.507048965e-006 30.48976326
lwrist  4.824992743e-007 -3.790274832e-007 -28.69709969
lhand  -4.41407394e-031 -36.87279892 -10.85480022
lfingers  90 7.125020027 -90
lthumb  94.84152547 -25.68831899 101.0564351
rclavicle  0 -4.497500157e-015 -2.743230041e-014
rhumerus  -59.88159943 -29.72730064 -8.511519432
rradius  -5.16745672e-007 2.214343908e-008 108.7720032
rwrist  -0.0001011603963 -0.001600692281 174.9200287
rhand  -1.765919917e-031 1.152750015 -8.096119881
rfingers  -90 -7.125020027 -90
rthumb  -86.03717538 -7.825939609 -63.03483264
rfemur  -12.87160873 16.71951103 12.75598717
rtibia  -1.606265306 -1.318603277 21.80374718
rfoot  -0.03381232172 -22.51264381 -35.58220291
rtoes  4.170024923 19.57787589 -102.2752676
lfemur  -8.044730186 -17.11204147 -20.74044991
ltibia  2.439862967 -1.682246566 15.04000759
lfoot  0.9803515077 -22.30029869 38.44416809
ltoes  -8.569668633 -18.13930878 -115.8286748
68
root  34.73583732 36.50031503 -14.96006973 8.200921059 -6.516265392 3.93680191
lowerback  -7.356500149 -1.682770014 -1.282359838
upperback  -4.517399788 -1.678239942 -3.425149918
thorax  -0.606712997 -0.6537370086 -2.926909924
lowerneck  -1.677189946 -17.2105999 -13.21280003
upperneck  12.26159954 -24.04969978 13.17749977
head  7.234039783 -11.4399004 3.994889975
lclavicle  0 -4.497500157e-015 -2.743230041e-014
lhumerus  -50.47430038 29.76729965 61.71920013
lradius  0.001595117152 -6.507048965e-006 30.47710037
lwrist  4.824992743e-007 -3.790274832e-007 -28.8022995
lhand  -4.417841977e-031 -36.93790054 -10.8118
lfingers  90 7.125020027 -90
lthumb  94.86302855 -25.6436572 101.1221319
rclavicle  0 -4.497500157e-015 -2.743230041e-014
rhumerus  -59.3606987 -29.99970055 -7.556019783
rradius  -5.16745672e-007 2.214343908e-008 108.7160034
rwrist  -0.0001011603963 -0.001600692281 174.9070282
rhand  -1.76628836e-031 1.642639995 -8.176600456
rfingers  -90 -7.125020027 -90
rthumb  -85.97684608 -7.786003595 -62.5633107
rfemur  -12.85247612 16.74721718 12.75404549
rtibia  -1.605263114 -1.335276008 21.77960205
rfoot  -0.03703246266 -22.54042435 -35.6085968
rtoes  4.154842013 19.58098249 -102.2299608
lfemur  -8.058348656 -17.09173203 -20.73205948
ltibia  2.438422918 -1.663989663 15.06524754
lfoot  1.002992034 -22.35904312 38.44645309
ltoes  -8.573361558 -18.13760965 -115.8405372
